<svg width="312" height="30" viewBox="0 0 312 30" fill="none" xmlns="http://www.w3.org/2000/svg">
<path d="M18.7617 24.7812V29H4.46484V24.7812H18.7617ZM6.08594 0.5625V29H0.714844V0.5625H6.08594Z" fill="#D9D9D9"/>
<path d="M37.4336 0.5625H42.8047V19.4492C42.8047 21.6237 42.3359 23.4531 41.3984 24.9375C40.4609 26.4089 39.1849 27.5221 37.5703 28.2773C35.9557 29.0195 34.1198 29.3906 32.0625 29.3906C29.9792 29.3906 28.1237 29.0195 26.4961 28.2773C24.8685 27.5221 23.5924 26.4089 22.668 24.9375C21.7435 23.4531 21.2812 21.6237 21.2812 19.4492V0.5625H26.6523V19.4492C26.6523 20.7773 26.8737 21.8646 27.3164 22.7109C27.7591 23.5443 28.3841 24.1628 29.1914 24.5664C29.9987 24.9701 30.9557 25.1719 32.0625 25.1719C33.1823 25.1719 34.1393 24.9701 34.9336 24.5664C35.7409 24.1628 36.3594 23.5443 36.7891 22.7109C37.2188 21.8646 37.4336 20.7773 37.4336 19.4492V0.5625Z" fill="#D9D9D9"/>
<path d="M64.543 19.6445H69.9141C69.7708 21.5456 69.2435 23.2318 68.332 24.7031C67.4206 26.1615 66.151 27.3073 64.5234 28.1406C62.8958 28.974 60.9232 29.3906 58.6055 29.3906C56.8216 29.3906 55.2135 29.0781 53.7812 28.4531C52.362 27.8151 51.1445 26.9102 50.1289 25.7383C49.1263 24.5534 48.3581 23.1341 47.8242 21.4805C47.2904 19.8138 47.0234 17.9453 47.0234 15.875V13.707C47.0234 11.6367 47.2969 9.76823 47.8438 8.10156C48.3906 6.4349 49.1719 5.01562 50.1875 3.84375C51.2161 2.65885 52.4466 1.7474 53.8789 1.10938C55.3242 0.471354 56.9388 0.152344 58.7227 0.152344C61.0404 0.152344 63 0.582031 64.6016 1.44141C66.2031 2.28776 67.4466 3.45312 68.332 4.9375C69.2174 6.42188 69.7513 8.1276 69.9336 10.0547H64.5625C64.4583 8.85677 64.1979 7.84115 63.7812 7.00781C63.3776 6.17448 62.7656 5.54297 61.9453 5.11328C61.138 4.67057 60.0638 4.44922 58.7227 4.44922C57.681 4.44922 56.763 4.64453 55.9688 5.03516C55.1875 5.42578 54.5365 6.01172 54.0156 6.79297C53.4948 7.5612 53.1042 8.52474 52.8438 9.68359C52.5833 10.8294 52.4531 12.1576 52.4531 13.668V15.875C52.4531 17.3203 52.5703 18.6159 52.8047 19.7617C53.0391 20.9076 53.4036 21.8776 53.8984 22.6719C54.3932 23.4661 55.0312 24.0716 55.8125 24.4883C56.5938 24.9049 57.5247 25.1133 58.6055 25.1133C59.9206 25.1133 60.9883 24.9049 61.8086 24.4883C62.6419 24.0716 63.2734 23.4596 63.7031 22.6523C64.1458 21.8451 64.4258 20.8424 64.543 19.6445Z" fill="#D9D9D9"/>
<path d="M85.3828 4.87891L77.2773 29H71.5938L82.2188 0.5625H85.8516L85.3828 4.87891ZM92.1602 29L84.0156 4.87891L83.5273 0.5625H87.1797L97.8633 29H92.1602ZM91.7891 18.4336V22.6719H76.5352V18.4336H91.7891Z" fill="#D9D9D9"/>
<path d="M115.676 21.6172C115.676 21.0703 115.591 20.582 115.422 20.1523C115.266 19.7096 114.973 19.3125 114.543 18.9609C114.126 18.5964 113.534 18.2448 112.766 17.9062C112.01 17.5547 111.034 17.1901 109.836 16.8125C108.508 16.3958 107.271 15.9271 106.125 15.4062C104.979 14.8854 103.97 14.2799 103.098 13.5898C102.238 12.8997 101.568 12.1055 101.086 11.207C100.604 10.2956 100.363 9.24089 100.363 8.04297C100.363 6.87109 100.611 5.80339 101.105 4.83984C101.613 3.8763 102.329 3.04948 103.254 2.35938C104.178 1.65625 105.266 1.11589 106.516 0.738281C107.779 0.360677 109.172 0.171875 110.695 0.171875C112.805 0.171875 114.628 0.55599 116.164 1.32422C117.714 2.09245 118.911 3.13411 119.758 4.44922C120.604 5.76432 121.027 7.24219 121.027 8.88281H115.676C115.676 7.9974 115.487 7.21615 115.109 6.53906C114.745 5.86198 114.185 5.32812 113.43 4.9375C112.688 4.54688 111.75 4.35156 110.617 4.35156C109.523 4.35156 108.612 4.51432 107.883 4.83984C107.167 5.16536 106.626 5.60807 106.262 6.16797C105.91 6.72786 105.734 7.35286 105.734 8.04297C105.734 8.5638 105.858 9.03255 106.105 9.44922C106.353 9.85286 106.724 10.237 107.219 10.6016C107.714 10.9531 108.326 11.2852 109.055 11.5977C109.797 11.8971 110.656 12.1966 111.633 12.4961C113.195 12.9648 114.562 13.4857 115.734 14.0586C116.919 14.6315 117.902 15.2826 118.684 16.0117C119.478 16.7409 120.07 17.5612 120.461 18.4727C120.865 19.3841 121.066 20.4193 121.066 21.5781C121.066 22.8021 120.826 23.8958 120.344 24.8594C119.862 25.8229 119.172 26.6432 118.273 27.3203C117.375 27.9974 116.294 28.5117 115.031 28.8633C113.781 29.2148 112.382 29.3906 110.832 29.3906C109.452 29.3906 108.085 29.2083 106.73 28.8438C105.389 28.4661 104.172 27.9062 103.078 27.1641C101.984 26.4089 101.112 25.4583 100.461 24.3125C99.8099 23.1536 99.4844 21.7995 99.4844 20.25H104.875C104.875 21.1484 105.018 21.9167 105.305 22.5547C105.604 23.1797 106.021 23.694 106.555 24.0977C107.102 24.4883 107.74 24.7747 108.469 24.957C109.198 25.1393 109.986 25.2305 110.832 25.2305C111.926 25.2305 112.824 25.0807 113.527 24.7812C114.243 24.4688 114.777 24.0391 115.129 23.4922C115.493 22.9453 115.676 22.3203 115.676 21.6172Z" fill="#D9D9D9"/>
<path d="M146.105 18.6289H138.781V14.4102H146.105C147.303 14.4102 148.273 14.2148 149.016 13.8242C149.771 13.4206 150.324 12.8737 150.676 12.1836C151.027 11.4805 151.203 10.6797 151.203 9.78125C151.203 8.90885 151.027 8.09505 150.676 7.33984C150.324 6.58464 149.771 5.97266 149.016 5.50391C148.273 5.03516 147.303 4.80078 146.105 4.80078H140.539V29H135.168V0.5625H146.105C148.319 0.5625 150.207 0.959635 151.77 1.75391C153.345 2.53516 154.543 3.6224 155.363 5.01562C156.197 6.39583 156.613 7.97135 156.613 9.74219C156.613 11.5781 156.197 13.1602 155.363 14.4883C154.543 15.8164 153.345 16.8385 151.77 17.5547C150.207 18.2708 148.319 18.6289 146.105 18.6289Z" fill="#D9D9D9"/>
<path d="M166.555 0.5625V29H161.184V0.5625H166.555Z" fill="#D9D9D9"/>
<path d="M195.207 0.5625V29H189.816L177.727 9.27344V29H172.355V0.5625H177.727L189.855 20.3086V0.5625H195.207Z" fill="#D9D9D9"/>
<path d="M219.543 12.3008V16.5195H204.582V12.3008H219.543ZM206.047 0.5625V29H200.676V0.5625H206.047ZM223.527 0.5625V29H218.156V0.5625H223.527Z" fill="#D9D9D9"/>
<path d="M247.844 24.7812V29H232.727V24.7812H247.844ZM234.367 0.5625V29H228.996V0.5625H234.367ZM245.871 12.3008V16.4219H232.727V12.3008H245.871ZM247.785 0.5625V4.80078H232.727V0.5625H247.785Z" fill="#D9D9D9"/>
<path d="M257.297 0.5625V29H251.926V0.5625H257.297Z" fill="#D9D9D9"/>
<path d="M263.098 0.5625H273.43C275.591 0.5625 277.447 0.888021 278.996 1.53906C280.546 2.1901 281.737 3.15365 282.57 4.42969C283.404 5.70573 283.82 7.27474 283.82 9.13672C283.82 10.6081 283.56 11.8841 283.039 12.9648C282.518 14.0456 281.783 14.9505 280.832 15.6797C279.895 16.4089 278.788 16.9818 277.512 17.3984L275.832 18.2578H266.711L266.672 14.0195H273.488C274.595 14.0195 275.513 13.8242 276.242 13.4336C276.971 13.043 277.518 12.5026 277.883 11.8125C278.26 11.1224 278.449 10.3346 278.449 9.44922C278.449 8.4987 278.267 7.67839 277.902 6.98828C277.538 6.28516 276.984 5.74479 276.242 5.36719C275.5 4.98958 274.562 4.80078 273.43 4.80078H268.469V29H263.098V0.5625ZM279.152 29L272.57 16.2656L278.254 16.2461L284.914 28.7266V29H279.152Z" fill="#D9D9D9"/>
<path d="M311.555 14.0586V15.5234C311.555 17.6719 311.268 19.6055 310.695 21.3242C310.122 23.0299 309.309 24.4818 308.254 25.6797C307.199 26.8776 305.943 27.7956 304.484 28.4336C303.026 29.0716 301.405 29.3906 299.621 29.3906C297.863 29.3906 296.249 29.0716 294.777 28.4336C293.319 27.7956 292.056 26.8776 290.988 25.6797C289.921 24.4818 289.094 23.0299 288.508 21.3242C287.922 19.6055 287.629 17.6719 287.629 15.5234V14.0586C287.629 11.8971 287.922 9.96354 288.508 8.25781C289.094 6.55208 289.914 5.10026 290.969 3.90234C292.023 2.69141 293.28 1.76693 294.738 1.12891C296.21 0.490885 297.824 0.171875 299.582 0.171875C301.366 0.171875 302.987 0.490885 304.445 1.12891C305.904 1.76693 307.16 2.69141 308.215 3.90234C309.283 5.10026 310.103 6.55208 310.676 8.25781C311.262 9.96354 311.555 11.8971 311.555 14.0586ZM306.125 15.5234V14.0195C306.125 12.4701 305.982 11.1094 305.695 9.9375C305.409 8.7526 304.986 7.75651 304.426 6.94922C303.866 6.14193 303.176 5.53646 302.355 5.13281C301.535 4.71615 300.611 4.50781 299.582 4.50781C298.54 4.50781 297.616 4.71615 296.809 5.13281C296.014 5.53646 295.337 6.14193 294.777 6.94922C294.217 7.75651 293.788 8.7526 293.488 9.9375C293.202 11.1094 293.059 12.4701 293.059 14.0195V15.5234C293.059 17.0599 293.202 18.4206 293.488 19.6055C293.788 20.7904 294.217 21.793 294.777 22.6133C295.35 23.4206 296.04 24.0326 296.848 24.4492C297.655 24.8659 298.579 25.0742 299.621 25.0742C300.663 25.0742 301.587 24.8659 302.395 24.4492C303.202 24.0326 303.879 23.4206 304.426 22.6133C304.986 21.793 305.409 20.7904 305.695 19.6055C305.982 18.4206 306.125 17.0599 306.125 15.5234Z" fill="#D9D9D9"/>
</svg>
